<svg width="230" height="62" viewBox="0 0 230 62" fill="none" xmlns="http://www.w3.org/2000/svg">
<g clip-path="url(#clip0_124_356)">
<path d="M69.1763 7.24716C68.3776 12.5693 66.7802 25.4792 70.2033 38.2755C70.8881 39.9737 72.5994 39.521 73.2842 38.7282C73.5125 38.3886 75.7943 36.237 75.7943 36.237C76.593 35.1042 77.3917 35.4439 77.9622 36.237C78.5326 37.0301 80.13 39.521 82.5262 39.6341C84.9219 39.7472 88.6872 36.9162 90.1703 35.7835C91.1973 37.709 92.4522 39.521 94.5061 39.4071C96.56 39.2941 98.4993 37.8221 100.211 36.0101C101.466 37.4824 102.835 39.0675 104.433 38.9544C106.03 38.8413 108.997 37.1424 111.849 34.5377C112.99 33.2922 114.245 33.8584 115.044 35.1039C115.842 36.3493 116.983 38.3879 118.467 38.3879C119.95 38.3879 122.117 36.3493 122.802 35.7831C123.486 35.2177 124.171 34.7642 124.97 35.6701L126.681 37.2551C127.708 38.2748 129.876 38.0482 131.473 36.5759C133.071 35.1035 133.413 34.6511 134.097 34.6511C134.782 34.6511 135.124 35.557 135.809 36.2362C136.493 36.9155 141.742 41.4453 148.702 34.4242C148.816 37.9352 148.017 57.6384 148.017 60.4701C148.017 61.8286 149.614 62.2821 151.897 61.8286C154.178 61.3759 155.32 60.6959 155.205 57.4126C155.091 54.1286 154.635 37.9351 154.635 37.9351C154.977 35.3304 157.259 31.0271 159.655 30.9141C162.051 30.8006 160.91 33.745 159.769 33.745C158.629 33.745 157.373 34.3111 157.373 35.33C157.373 36.349 157.716 39.2933 164.448 39.2933C171.179 39.2933 171.977 37.1417 173.803 36.3489C174.944 38.5006 178.367 41.8984 187.837 35.8962C189.777 38.1606 193.428 40.9922 197.421 38.1606C198.676 37.1417 199.931 34.7635 199.475 32.7249C199.132 31.9326 199.36 31.593 199.931 31.593H203.696C204.495 31.593 205.864 32.1591 206.32 34.4239C206.777 36.689 208.374 38.614 209.629 38.5002C210.884 38.3871 213.28 36.4624 214.649 35.1031C215.791 36.689 220.697 44.0497 229.71 31.706C230.509 30.5737 229.254 30.0075 228.569 30.8002C227.885 31.593 225.831 32.8388 224.119 32.9515C222.408 33.0653 220.354 31.3664 218.757 29.2148C217.16 27.0631 215.334 27.8555 214.193 29.5544C213.394 30.4602 212.938 31.366 212.025 32.3849C211.455 31.366 210.77 29.2148 209.629 28.422C208.488 27.6293 207.575 27.5162 204.837 28.1955C202.099 28.8748 199.018 29.2148 195.938 29.3279C194.226 29.2148 194.683 30.0075 194.797 30.6868C194.911 31.3664 196.166 34.1969 193.884 34.3108C191.602 34.4239 191.83 31.0268 193.428 29.2148C194.226 28.422 193.085 26.7231 191.83 27.4028C190.575 28.0824 189.777 28.422 188.75 30.0071C187.723 31.5926 185.555 33.9708 182.018 34.0839C178.481 34.1969 179.508 30.1206 179.622 28.3086C179.622 27.2893 178.937 26.3835 177.111 26.8366C175.286 27.2897 172.89 27.0631 173.118 32.0453C171.863 33.8573 169.011 34.9897 166.729 34.65C166.044 34.5362 165.816 34.1966 166.044 33.4046C166.272 32.6115 166.843 28.1955 163.42 27.0628C159.997 25.9304 157.373 27.5159 155.661 28.9879C154.749 29.4409 154.52 28.9879 154.52 28.1951L154.634 24.0053C154.634 22.0802 150.755 21.6271 150.185 23.8919C149.614 26.1566 148.93 30.5733 145.507 32.1588C142.084 33.7439 140.943 31.7053 139.117 29.4406C137.292 27.1759 135.466 27.2889 133.412 29.3275L131.359 31.2526C130.56 31.9318 130.104 31.7053 129.419 30.686C128.735 29.6671 128.278 28.3078 127.023 28.1948C125.768 28.0817 125.54 28.5344 124.627 29.214L122.003 31.2526C120.976 32.0449 120.748 32.0449 119.722 30.686C119.722 30.686 118.01 27.8551 116.299 27.8551C114.587 27.8551 114.017 28.8744 112.99 29.6671C112.99 29.6671 110.366 31.4791 109.453 32.2715C108.54 33.0646 105.916 34.6497 103.406 30.9126C102.493 29.5537 100.896 28.5344 99.7549 30.4595C98.614 32.3842 96.7887 35.3286 95.4195 34.4227C94.0503 33.5169 96.3322 30.9126 98.0435 30.6857C99.7549 30.4595 98.7283 28.3075 97.0166 28.1944C95.3048 28.0813 92.5668 29.2137 91.3116 30.6857C90.0568 32.158 88.0028 33.8562 85.9493 33.7435C83.8957 33.6297 83.4392 32.0446 82.4122 29.8933C81.3853 27.7417 79.56 27.9682 78.1908 29.1006C76.8216 30.2329 76.479 30.5726 75.4525 31.818C74.4255 33.0642 74.4255 32.3842 74.3115 31.5922C74.1972 30.7995 73.5128 16.1911 74.6541 6.79222C75.1091 4.41626 70.2029 3.62353 69.1763 7.24716Z" fill="#B4B6B7"/>
<path d="M177.111 24.6995C179.072 24.6995 180.661 23.1222 180.661 21.1764C180.661 19.2305 179.072 17.6532 177.111 17.6532C175.151 17.6532 173.561 19.2305 173.561 21.1764C173.561 23.1222 175.151 24.6995 177.111 24.6995ZM63.471 28.3105C63.0149 28.6505 50.1219 32.9531 43.0478 33.4065V7.13418C47.1553 7.24727 54.9138 8.94618 59.82 10.7578C60.9609 11.324 63.3571 10.6447 60.847 8.15345C55.0278 3.51055 45.9001 0 33.8059 0C21.7116 0 0.0332031 6.68146 0.0332031 20.2702C0.0332031 33.8589 17.3759 40.6538 33.9198 40.6538C45.5579 40.6538 56.3969 36.4636 64.2697 28.9898C65.5249 27.7444 63.9272 27.9709 63.471 28.3105ZM24.3341 33.3869C14.4859 31.3736 7.50478 26.3106 7.50478 20.3836C7.50478 14.4589 14.4915 9.39779 24.3341 7.38297V33.3869ZM224.626 24.909C223.705 24.909 222.959 25.6272 222.959 26.5041C222.959 27.3995 223.705 28.1177 224.626 28.1177C225.542 28.1177 226.284 27.3995 226.284 26.5041C226.284 25.6268 225.542 24.909 224.626 24.909ZM224.626 27.8041C223.875 27.8041 223.275 27.236 223.275 26.5041C223.275 25.7952 223.875 25.2223 224.626 25.2223C225.367 25.2223 225.967 25.7948 225.967 26.5041C225.967 27.236 225.368 27.8041 224.626 27.8041Z" fill="#B4B6B7"/>
<path d="M225.478 26.0858C225.478 25.9356 225.409 25.7769 225.272 25.6994C225.13 25.6223 224.974 25.613 224.818 25.613H224.008V27.4084H224.282V26.5811H224.607L225.139 27.4084H225.455L224.891 26.5811C225.221 26.5722 225.478 26.4406 225.478 26.0858ZM224.585 26.3583H224.282V25.8177H224.763C224.997 25.8177 225.203 25.8496 225.203 26.081C225.203 26.4039 224.846 26.3583 224.585 26.3583Z" fill="#B4B6B7"/>
</g>
<defs>
<clipPath id="clip0_124_356">
<rect width="230" height="62" fill="white"/>
</clipPath>
</defs>
</svg>
