<svg width="166" height="167" viewBox="0 0 166 167" fill="none" xmlns="http://www.w3.org/2000/svg">
<g clip-path="url(#clip0_140_2150)">
<path d="M134.186 72.9067C120.72 51.7201 107.333 30.5336 94.1037 9.19123C90.245 3.11567 97.3323 0 102.687 0C109.617 0 119.539 2.33675 123.634 8.5681C137.494 29.7547 151.196 50.9412 164.819 72.2057C168.835 78.5149 161.275 81.7864 155.921 81.7864C148.833 81.7864 138.281 79.3717 134.186 72.9067V72.9067Z" fill="#393E46"/>
<path d="M95.8356 104.141C74.4162 94.6385 53.0756 85.0578 31.735 75.3992C27.7976 73.6077 18.5841 68.1553 23.3877 62.9365C28.1913 57.7178 39.0585 60.444 44.1771 62.625C65.754 71.972 87.2521 81.3969 108.829 90.8997C111.9 92.2238 115.68 94.3269 117.57 97.2089C118.83 99.1562 119.46 102.038 117.57 103.83C112.373 108.737 101.663 106.712 95.993 104.141H95.8356Z" fill="#393E46"/>
<path d="M68.825 166.844C51.8943 165.131 34.8848 163.417 17.9541 161.625C13.9379 161.158 9.44931 159.756 6.06316 157.653C4.01572 156.407 0.472079 153.758 0.0783406 151.11C-0.866631 144.1 9.13432 144.022 13.7017 144.411C30.6324 145.891 47.5632 147.527 64.4939 149.241C68.5888 149.63 73.2349 151.188 76.6998 153.369C78.7472 154.615 82.4484 157.341 82.8421 160.146C83.7871 167.312 73.5499 167.467 68.9038 167L68.825 166.844Z" fill="#393E46"/>
</g>
<defs>
<clipPath id="clip0_140_2150">
<rect width="166" height="167" fill="white" transform="matrix(-1 0 0 1 166 0)"/>
</clipPath>
</defs>
</svg>
