<svg width="123" height="120" viewBox="0 0 123 120" fill="none" xmlns="http://www.w3.org/2000/svg">
<g clip-path="url(#clip0_122_340)">
<path d="M4.52666 10.5056L2.07987 64.8045C1.2969 82.6895 -0.171175 100.667 0.000100197 118.575C0.0245681 121.448 9.49364 119.563 9.76278 116.781C11.5245 98.9654 11.6713 80.9194 12.4542 63.0344L14.8521 9.31023C15.0234 5.33322 4.62453 7.28724 4.50219 10.5286L4.52666 10.5056Z" fill="#00ADB5"/>
<path d="M6.11686 13.885C38.8304 12.2988 71.495 9.26427 103.964 5.26427L100.612 1.88496C87.3013 12.0459 73.4769 21.5171 58.9675 30.1148C56.8388 31.3792 56.1781 33.3562 59.0164 34.1148C77.4652 39.0114 95.9139 43.9309 114.338 48.8735L118.18 43.5861C80.9396 49.6781 43.675 56.0919 6.80196 63.9309C5.4073 64.2298 2.61796 65.3562 2.69136 67.0344C2.76477 68.7125 5.50517 68.8505 6.7775 68.6206C43.4059 61.885 79.9854 54.9424 116.761 48.9194C118.547 48.6206 121.238 47.9999 122.241 46.3447C123.122 44.8965 122.095 44.0229 120.602 43.6321C102.129 38.7585 83.6555 33.862 65.2068 28.9424L65.2557 32.9424C80.3279 23.9309 94.8863 14.1378 108.662 3.44818C111.696 1.10336 107.487 -0.229978 105.31 0.0688722C73.2322 4.22979 40.9591 6.98841 8.61259 8.87347C6.94877 8.96542 4.01263 9.93094 3.37646 11.5861C2.7403 13.2413 4.59986 13.9539 6.11686 13.885Z" fill="#00ADB5"/>
</g>
<defs>
<clipPath id="clip0_122_340">
<rect width="123" height="120" fill="white"/>
</clipPath>
</defs>
</svg>
