<svg width="221" height="186" viewBox="0 0 221 186" fill="none" xmlns="http://www.w3.org/2000/svg">
<g clip-path="url(#clip0_119_366)">
<path d="M101.128 49.6116C101.128 32.653 97.2746 11.7707 76.1353 3.11705C53.482 -6.16878 27.1128 6.93165 13.9283 21.5143C-16.4321 55.061 8.09292 99.1578 37.4073 127.342C55.4363 144.671 78.9704 159.298 88.2739 181.27C89.5125 184.213 100.11 181.815 98.8986 179.003C91.3017 161.107 74.3461 147.636 58.5191 134.1C42.6921 120.563 29.2598 106.09 20.2866 89.2181C11.3134 72.3466 7.23964 54.1673 14.2035 36.8381C17.6717 28.2716 23.8373 20.3155 32.15 14.1685C39.3065 8.89345 48.8853 4.01076 59.0972 5.01345C71.2358 6.19053 80.2916 14.3865 84.7231 22.8876C89.1547 31.3887 90.5034 41.3067 90.5034 50.6579C90.5034 54.1455 101.128 52.3581 101.128 49.6116V49.6116Z" fill="#00ADB5"/>
<path d="M101.458 50.004C112.606 34.4404 130.745 21.9939 151.554 15.084C161.601 11.749 172.418 9.74357 183.346 9.78716C186.071 9.78716 188.823 9.91795 191.521 10.1795C193.805 10.4193 197.824 10.4629 199.833 11.422C201.843 12.3811 203.907 14.866 205.283 16.4573C206.962 18.3755 208.228 20.468 209.082 22.6914C212.302 31.0835 208.696 39.9116 203.577 47.3446C197.989 55.4316 190.557 62.6467 182.988 69.6001C173.932 77.9051 164.326 85.8394 155.408 94.2534C146.489 102.667 137.406 111.801 128.956 120.912C110.459 140.857 93.8611 161.848 79.1627 183.668C76.7955 187.177 87.4202 186.283 89.0718 183.842C102.889 163.309 118.414 143.494 135.617 124.618C144.563 114.809 153.949 105.239 163.72 95.9536C173.492 86.6677 183.538 78.4064 193.227 69.4911C201.32 62.0363 209.329 54.2545 214.89 45.4046C219.844 37.5357 223.147 28.4024 219.459 19.7487C217.642 15.5418 213.816 10.2013 209.027 7.69458C206.852 6.5393 203.577 6.29953 201.017 5.95077C197.851 5.51481 194.658 5.23144 191.466 5.10065C178.997 4.53391 166.445 6.25593 154.692 9.4384C128.818 16.4355 105.174 30.8874 91.6041 49.8296C89.1543 53.2518 99.7791 52.4235 101.513 50.004H101.458Z" fill="#00ADB5"/>
</g>
<defs>
<clipPath id="clip0_119_366">
<rect width="221" height="186" fill="white"/>
</clipPath>
</defs>
</svg>
