<svg width="107" height="123" viewBox="0 0 107 123" fill="none" xmlns="http://www.w3.org/2000/svg">
<g clip-path="url(#clip0_121_337)">
<path d="M48.9625 32.8076C48.9625 21.5931 47.0968 7.78384 36.8619 2.06124C25.894 -4.07939 13.127 4.5838 6.74353 14.2272C-7.9558 36.4113 3.91828 65.5721 18.1112 84.2102C26.8402 95.6698 38.2345 105.342 42.7389 119.872C43.3386 121.818 48.4694 120.232 47.883 118.373C44.2049 106.538 35.9956 97.6302 28.3328 88.6787C20.6699 79.7272 14.1665 70.1559 9.822 58.999C5.4775 47.8421 3.50515 35.8203 6.8768 24.3607C8.55596 18.6957 11.5411 13.4344 15.5658 9.36945C19.0307 5.88111 23.6684 2.65224 28.6126 3.31531C34.4897 4.0937 38.8742 9.5136 41.0198 15.1353C43.1654 20.757 43.8184 27.3157 43.8184 33.4995C43.8184 35.8059 48.9625 34.6239 48.9625 32.8076Z" fill="#00ADB5"/>
<path d="M49.122 33.0671C54.5193 22.775 63.3016 14.5443 73.3766 9.97482C78.2408 7.76939 83.4782 6.44324 88.7689 6.47207C90.0883 6.47207 91.4209 6.55856 92.7269 6.73153C93.8331 6.89009 95.7787 6.91892 96.7516 7.55317C97.7244 8.18741 98.7239 9.83068 99.3903 10.8829C100.203 12.1514 100.816 13.5352 101.229 15.0055C102.789 20.5552 101.043 26.3931 98.564 31.3085C95.8587 36.6563 92.2605 41.4275 88.5957 46.0258C84.2112 51.5178 79.5602 56.7647 75.2423 62.3287C70.9245 67.8928 66.5267 73.9325 62.4354 79.9578C53.4798 93.1472 45.4438 107.028 38.3274 121.458C37.1813 123.778 42.3254 123.187 43.125 121.573C49.815 107.994 57.3312 94.8914 65.6604 82.4083C69.9916 75.9217 74.536 69.5937 79.267 63.4531C83.998 57.3125 88.8622 51.8493 93.5532 45.9537C97.4712 41.0239 101.349 35.8779 104.041 30.0256C106.44 24.8219 108.039 18.7822 106.254 13.0596C105.374 10.2775 103.522 6.74595 101.203 5.08826C100.15 4.32429 98.564 4.16573 97.3246 3.93509C95.7921 3.6468 94.2462 3.45941 92.7003 3.37292C86.6633 2.99814 80.5863 4.1369 74.8958 6.24143C62.3687 10.8685 50.9211 20.4254 44.351 32.9517C43.165 35.2148 48.3091 34.6671 49.1487 33.0671H49.122Z" fill="#00ADB5"/>
</g>
<defs>
<clipPath id="clip0_121_337">
<rect width="107" height="123" fill="white"/>
</clipPath>
</defs>
</svg>
