<svg width="245" height="60" viewBox="0 0 245 60" fill="none" xmlns="http://www.w3.org/2000/svg">
<path d="M52.1744 1.42404C46.1713 1.37056 40.5016 4.39078 40.5016 4.39078C40.5016 4.39078 34.7896 7.83476 32.7031 12.9952C32.5953 13.4964 21.2792 35.3453 21.2792 35.3453C6.93519 31.2161 0.000296116 39.583 0.218875 42.8123C3.68428 51.4669 20.6301 45.3103 22.3221 43.3065C23.2586 42.8064 23.8621 43.4054 23.8621 43.4054C23.8621 43.4054 28.0122 46.156 28.4812 46.3725C28.9498 46.589 31.3127 46.2736 31.3127 46.2736C33.1503 46.1346 36.4289 42.5497 36.8261 42.5154C37.4389 42.5173 38.1779 46.4868 40.7005 46.4219C43.7273 47.0043 47.0086 43.6034 47.0086 43.6034C47.4405 42.9949 47.6046 43.4548 47.6046 43.4548C47.535 47.185 50.5781 46.527 51.4787 46.4219C54.4691 45.2104 61.7938 38.0262 60.9661 40.1421C60.6783 40.7152 58.4328 44.8887 58.4328 44.8887C58.1813 46.0007 58.9793 45.9273 58.9793 45.9273L64.2441 45.8779C65.1443 45.342 69.7508 35.4667 69.2114 36.8291C70.8715 33.838 74.6255 32.7743 74.6255 32.7743C74.986 32.6674 74.8241 33.1697 74.8241 33.1697L68.6649 45.3339C68.5575 45.6559 69.1614 45.9767 69.1614 45.9767L74.5258 45.8779C75.2468 45.8086 79.7414 36.631 79.7414 36.631C80.9647 34.3023 85.3048 32.972 85.3048 32.972C86.0968 32.8304 85.553 33.6148 85.553 33.6148L81.3311 42.4166C80.6894 46.4127 84.0622 46.6469 85.5033 46.4713C86.9445 46.2604 89.2881 45.4523 93.8975 42.0208C94.8348 41.3068 95.0401 42.0253 95.0401 42.1695C95.0797 47.0835 100.504 46.5207 100.504 46.5207C102.125 46.9198 108.708 46.7653 114.213 35.8399C112.2 43.2593 116.304 45.2797 116.448 45.532C116.593 45.7827 118.799 46.5499 119.627 46.3725C128.023 47.1134 131.548 34.1094 131.548 34.1094C133.437 32.6983 133.917 32.2934 134.677 31.884C136.552 32.0677 137.055 32.1204 137.956 32.2303C138.676 32.4837 138.023 33.1531 137.806 33.3674C129.235 40.0163 132.998 45.1436 133.287 45.0374C137.037 50.1052 144.823 41.271 146.3 41.1309C148.179 48.5979 153.896 45.3472 154.148 45.3833C153.645 46.8527 152.179 50.4862 150.92 52.85C148.292 56.5381 144.164 52.4052 144.164 52.4052L143.121 52.3558C142.617 52.9997 142.923 53.7403 142.923 53.7403C144.004 55.4652 145.39 57.8522 149.678 58.4379C154.002 58.6293 156.483 53.8885 156.483 53.8885C156.483 53.8885 162.544 42.754 162.94 41.4274C164.776 39.7825 167.964 37.4074 170.341 35.6916C171.89 35.3733 166.465 44.1788 166.069 45.4327C165.962 46.1505 166.218 46.1748 166.218 46.1748C166.218 46.1748 170.343 46.3787 171.136 46.2736C171.928 46.1682 175.778 37.0636 177.146 35.3457C178.334 33.3759 182.162 31.5381 182.162 31.5381C182.991 31.361 182.709 32.3292 182.709 32.3292L177.643 42.5158C176.42 46.78 179.861 46.8021 180.474 46.7682C182.131 46.6642 188.322 43.1088 188.322 43.1088C189.186 42.4653 189.166 43.5046 189.166 43.5046C189.095 44.8677 190.574 47.1009 191.798 46.8173C196.195 47.2237 202.844 39.9536 203.024 40.6363C203.061 40.7802 200.54 45.7296 200.54 45.7296C200.649 46.1243 201.087 46.3231 201.087 46.3231C201.087 46.3231 205.344 46.3695 206.352 46.3725C207.361 46.3754 211.95 35.4582 212.958 34.8507C215.011 32.7404 217.257 32.5401 217.329 32.5763C218.086 32.5431 213.047 40.5563 212.76 42.1691C211.646 46.794 214.945 46.7184 214.945 46.7184C217.576 47.1208 224.026 42.5656 224.134 42.9602C224.89 42.2097 224.979 43.1088 224.979 43.1088V43.4548C225.414 47.1872 227.611 46.7678 227.611 46.7678C230.134 47.4206 239.979 39.2024 239.979 39.2024L238.489 37.5707L232.33 42.0208C231.826 42.2713 231.535 41.7243 231.535 41.7243L238.44 28.4721C238.763 28.1505 238.29 27.7798 238.29 27.7798H232.082C231.65 28.2445 231.386 28.5709 231.386 28.5709L225.774 39.4498L219.615 42.466C218.966 42.643 219.118 41.9718 219.118 41.9718C219.118 41.9718 224.249 31.9467 224.681 30.5489C224.969 29.9042 224.83 28.8678 224.83 28.8678C223.133 24.9525 216.28 30.0211 215.343 30.0547C215.306 30.0905 216.187 28.2744 216.187 28.2744C216.439 27.7367 215.939 27.7304 215.939 27.7304L210.177 27.681C210.177 27.681 210.194 27.2735 209.978 27.6316C209.762 27.9897 206.055 34.9005 206.055 34.9005L196.766 41.8726C195.973 42.0146 196.17 41.4772 196.17 41.4772L202.975 28.3733L203.025 27.8293L196.468 27.681L191.054 38.0649C190.766 38.3873 185.094 41.5761 185.094 41.5761C184.229 41.8254 184.199 41.0815 184.199 41.0815L189.216 31.3898C190.352 27.6087 186.203 26.4971 184.15 27.2358C182.761 27.7337 181.467 28.1756 181.467 28.1756C181.467 28.1756 181.057 28.2818 181.418 27.7798C182.029 26.9205 188.372 14.4288 188.372 14.4288C188.516 14.0699 188.173 13.8354 188.173 13.8354L182.411 13.7859C181.943 13.9991 181.865 14.3299 181.865 14.3299L173.669 29.8072L166.914 34.8511C166.481 35.1369 166.467 34.6531 166.467 34.6531L169.844 28.2744V27.6312L163.784 27.5818L162.791 28.3729C162.105 26.936 158.628 26.953 158.519 26.9884C151.24 26.7523 147.145 37.0264 147.145 37.0264C143.095 40.5216 141.223 41.6092 139.893 41.8228C138.786 41.8848 138.452 40.9819 138.452 40.9819C136.91 36.2788 146.598 31.8342 146.598 31.8342C146.923 31.6553 148.319 27.4833 148.138 27.4829C147.958 27.4826 136.226 27.4693 136.118 27.4335C135.469 27.1809 132.335 30.1166 131.399 30.796C128.655 22.7891 118.023 28.845 116.548 32.4276C115.914 32.5958 115.63 32.4785 115.306 32.4771C115.412 29.7515 115.049 28.052 113.319 27.186C112.382 26.6815 108.551 27.186 108.551 27.186L115.057 14.2802C115.381 13.8863 114.759 13.489 114.759 13.489H108.898C108.646 13.6321 108.352 13.9833 108.352 13.9833C108.352 13.9833 97.2773 35.3368 96.6294 36.4827C95.9818 37.6286 87.8873 41.922 87.8873 41.922C87.9585 41.1335 93.1721 32.1086 93.3514 30.3512C93.5637 25.7964 88.3345 27.2358 88.3345 27.2358C88.3345 27.2358 85.3733 29.1928 82.6722 30.5489C82.0916 25.5607 77.7049 27.2853 77.7049 27.2853L72.7379 30.4995L73.6319 28.1756L73.8308 27.2853L67.8699 27.137C67.1864 27.6375 65.9827 30.3512 65.9827 30.3512L64.0952 33.8125L55.6017 40.1915C54.7733 40.6551 55.2042 39.5487 55.2042 39.5487C55.2042 39.5487 60.9387 28.3515 61.0651 28.2741C61.5333 27.9882 61.1647 27.2856 61.1647 27.2856L55.4027 27.2358C55.4027 27.2358 54.4269 28.8863 54.2109 29.0655C51.4694 25.2188 42.4228 26.78 37.5711 38.1642C36.9509 38.925 36.4712 39.4576 36.1307 39.5981C30.4421 46.2183 27.1897 39.6475 27.1897 39.6475L37.3725 20.3132C37.3725 20.3132 42.0053 9.99454 44.9224 7.06099C52.3056 2.09565 54.4095 6.76446 54.4095 6.76446C55.0475 8.23603 56.9928 13.5484 46.9589 16.1102C45.6426 16.2397 46.0646 16.8515 46.0646 16.8515C48.985 19.3351 52.5716 19.0769 52.5716 19.0769C56.1033 19.7681 65.6734 14.5254 62.2076 6.12162C59.5031 2.60314 55.7762 1.45613 52.1744 1.42404ZM203.72 14.528C198.459 14.7283 198.151 21.7567 203.521 22.4888C208.745 22.6474 209.738 14.7603 203.72 14.5276V14.528ZM239.532 14.528C233.839 14.5479 234.263 22.5456 239.631 22.4888C245 22.0739 244.541 14.7209 239.532 14.5276V14.528ZM51.5783 29.5103C53.2621 29.5487 52.9676 31.5572 52.6712 31.9334C52.8517 32.5434 49.7404 37.7681 49.7404 37.7681C46.1405 42.2421 44.4256 41.4271 44.4256 41.4271C44.4256 41.4271 43.1919 41.2567 44.1278 38.8561C45.1354 37.1728 47.0923 32.7928 49.1443 30.2516C50.225 29.6988 51.0167 29.4974 51.5783 29.5103ZM108.054 30.0045C109.82 30.2251 108.948 31.8342 108.948 31.8342L104.08 41.3776C102.532 43.2752 101.1 42.6139 101.1 42.6139C100.307 42.0371 101.646 39.8448 101.646 39.8448L106.216 30.9443C107.116 30.0137 108.054 30.0045 108.054 30.0045ZM158.718 30.0543C160.096 29.8109 160.655 30.9443 160.655 30.9443C160.655 30.9443 160.735 31.1265 160.556 32.1311C160.161 33.6727 155.887 41.0317 155.887 41.0317C154.087 42.8204 152.509 42.4656 152.509 42.4656C151.608 42.2119 151.963 40.8834 151.963 40.8834C151.963 40.8834 155.424 33.8181 157.079 30.8454C157.727 30.3719 158.258 30.1351 158.718 30.0543ZM125.587 30.1037C126.349 29.9758 127.072 30.2881 126.929 31.8836C126.03 33.7823 122.483 40.7573 121.763 41.7236C121.619 42.549 117.997 43.8937 118.932 40.8834C118.932 40.8834 124.012 31.4237 124.048 30.9937C124.066 30.7783 124.826 30.2313 125.587 30.1037ZM11.196 37.8676C14.1657 37.7968 16.8583 38.7572 16.8583 38.7572C16.8583 38.7572 16.1637 41.0623 9.6063 42.1197C6.50766 41.9327 4.88869 41.9463 4.88758 40.8344C6.39948 38.5946 8.8861 37.9226 11.196 37.8676Z" fill="#B4B6B7"/>
</svg>
