<svg width="658" height="572" viewBox="0 0 658 572" fill="none" xmlns="http://www.w3.org/2000/svg">
<path fill-rule="evenodd" clip-rule="evenodd" d="M315.902 86.1794C365.112 95.831 412.616 58.6336 461.663 69.0819C533.526 84.3908 648.287 85.9056 657.059 158.856C666.655 238.661 536.469 259.732 492.693 327.147C466.18 367.977 488.497 427.362 458.042 465.343C422.935 509.125 370.613 535.13 315.902 547.623C249.7 562.74 161.539 594.617 117.219 543.168C69.7167 488.024 150.503 399.968 128.851 330.481C107.7 262.6 1.58073 238.154 0.0307417 167.071C-1.49436 97.1294 53.926 19.7593 121.697 2.40373C191.708 -15.5253 244.984 72.27 315.902 86.1794Z" fill="#231F20"/>
</svg>
