<svg width="553" height="646" viewBox="0 0 553 646" fill="none" xmlns="http://www.w3.org/2000/svg">
<path fill-rule="evenodd" clip-rule="evenodd" d="M315.721 3.21383C381.286 -13.3684 450.82 37.1334 495.598 87.8154C536.594 134.216 535.849 201.711 545.176 262.921C552.224 309.173 558.036 356.04 543.23 400.421C529.833 440.577 494.815 466.89 466.598 498.446C438.881 529.444 414.335 561.646 379.192 583.874C333.888 612.529 287.752 646.935 234.166 645.459C175.318 643.839 117.314 617.356 75.895 575.52C33.2275 532.424 11.1917 472.754 3.60914 412.585C-3.89146 353.066 -2.23722 287.018 33.4622 238.807C67.7021 192.567 141.969 202.95 186.141 166.081C240.503 120.707 247.073 20.5757 315.721 3.21383Z" fill="#231F20"/>
</svg>
