<svg width="261" height="56" viewBox="0 0 261 56" fill="none" xmlns="http://www.w3.org/2000/svg">
<g clip-path="url(#clip0_126_360)">
<path d="M255.331 33.1874C253.437 38.8984 248.82 40.7856 244.312 41.1242C239.804 41.4582 236.963 36.7133 238.47 33.0113L242.14 21.7246C243.948 17.1648 242.318 16.623 240.97 16.5056C239.139 16.3251 237.855 18.0226 237.177 20.2077L230.793 40.6185H221.905L229.937 15.4176H226.171L227.132 13.0971H238.607L237.851 15.4763C241.102 13.4808 243.693 12.5011 246.803 12.6095C249.967 12.7765 252.485 14.4605 251.643 18.5102L246.766 33.9187C245.209 38.4334 249.284 37.2777 250.077 36.9797C250.705 36.763 251.875 36.0677 251.994 34.8759C251.994 34.8759 251.32 35.1016 250.477 34.5959C249.63 33.7472 249.234 32.7765 249.849 31.4221C251.188 28.465 256.92 28.298 255.309 33.1603L255.331 33.1874ZM204.493 40.3386C198.937 39.4492 194.311 32.3386 196.41 25.3183C198.6 18.0135 202.061 15.8375 204.575 14.4831C207.079 13.1287 208.581 12.6321 212.088 12.4605C216.422 12.2573 221.313 15.2461 222.579 19.4312C223.981 24.0813 223.193 32.4154 216.595 37.4086C213.18 39.991 210.503 41.3138 204.493 40.3476V40.3386ZM213.089 14.8217C209.41 14.8217 209.082 17.3499 208.745 18.1896C208.422 19.0384 203.659 33.5395 203.659 33.5395C202.999 36.2303 203.422 38.0768 206.255 38.0768C209.082 38.0768 209.26 36.7224 210.093 35.0429L215.443 18.8623C216.117 16.6772 214.952 14.8217 213.108 14.8217H213.089ZM200.067 15.6659H195.887L190.213 33.1874C189.211 35.5485 189.717 38.0768 192.385 35.5485L193.71 34.0406L194.375 35.5576C192.531 38.2573 189.366 40.9707 185.35 41.1377C181.343 41.3183 179.831 37.0745 181.675 31.8555L187.012 15.684H183.67L184.672 13.1106H187.959L190.127 6.75847H198.696L196.861 13.1242H200.873L200.039 15.693L200.067 15.6659ZM178.861 11.1151C178.529 10.1084 177.199 11.2099 176.703 11.7201C176.703 11.7201 176.025 12.6321 176.025 13.1377C176.052 13.4582 176.635 13.6749 177.313 14.1038C178.497 14.8442 182.768 17.2822 180.737 23.5079C178.515 30.3883 170.843 31.5079 167.501 31.3409C164.163 31.1738 161.659 30.5056 161.158 32.5237C160.657 34.5418 163.995 35.2235 167.669 35.2235C171.344 35.2235 174.349 35.6072 176.639 37.9233C178.72 40.0135 180.92 52.2573 163.671 52.2573C145.986 52.2573 147.215 41.4492 153.308 40.1219C151.318 32.9436 156.368 30.447 159.737 29.5485C159.737 29.5485 154.646 26.1445 157.324 19.2415C159.988 12.3251 169.299 11.8781 170.806 11.8781C172.309 11.8781 173.384 12.158 174.008 12.3747C174.008 12.3747 174.8 10.7856 175.802 9.60722C176.803 8.42438 179.094 6.64108 180.856 6.60948C181.534 6.58691 185.122 6.88939 184.535 9.97743C183.87 13.4628 179.526 13.0068 178.861 11.1512V11.1151ZM157.042 42.4921C153.535 42.1535 151.418 44.1987 154.483 47.5124C156.805 50.0406 167.036 51.2235 171.166 48.3521C173.807 46.5237 171.262 43.8465 168.093 43.693C165.925 43.5847 166.649 43.4763 161.809 42.9752L157.01 42.5102L157.042 42.4921ZM171.503 14.4876C169.96 14.3251 167.838 14.316 167 16.8442L164.163 25.6027C163.33 28.8036 166.667 29.1467 167.168 28.9797C167.674 28.8036 169.846 29.8194 171.011 26.2709L173.516 18.1896C174.194 16.6727 173.024 14.6275 171.517 14.4876H171.503ZM149.141 32.8533C147.302 38.0768 149.642 37.2325 150.981 36.2257L151.983 37.4041C151.983 37.4041 147.967 41.1242 144.46 41.1242C140.954 41.1242 139.006 37.8014 139.921 34.2619L144.533 19.5395C145.626 15.8104 140.954 15.6433 139.775 18.6817L132.763 40.5959H124.089L131.511 15.6704H128.091L128.76 13.4537H140.299L139.775 15.3047C141.451 14.1219 145.617 12.605 148.631 12.772C151.632 12.9436 154.451 15.6027 153.558 18.8307L149.123 32.8307L149.141 32.8533ZM123.096 10.167C117.914 10.167 118.256 0.0541761 124.767 0.0541761C131.606 0.0541761 129.266 10.167 123.091 10.167H123.096ZM120.382 30.3612C119.713 32.2257 118.697 34.7359 119.417 36.3928C119.936 37.5756 121.129 36.6456 122.795 34.9752L124.098 35.7382C123.255 36.7404 119.421 41.1467 115.241 41.1467C111.07 41.1467 109.399 37.9368 110.738 33.7201L116.111 15.7517H112.741L113.479 13.4808H125.764C125.764 13.4808 121.051 28.5102 120.382 30.3612ZM105.556 30.5056C104.896 32.3567 103.557 34.8894 104.554 36.2393C105.552 37.5892 106.631 36.8849 107.97 34.8668L109.213 35.6659C107.368 38.3657 104.386 41.1467 100.215 41.1467C96.0442 41.1467 95.1153 37.2912 95.4477 35.0926C95.7801 32.9075 97.7608 27.2461 99.992 20.3025C101.904 14.3657 95.8393 16.456 94.7191 20.1445L88.0347 40.6546H79.5199L85.8628 20.2393C87.3198 14.6411 82.2656 16.5689 81.2502 19.6885L74.6705 40.6366H65.9371L73.5048 16.2348H69.8302L70.8411 13.4898H83.1535L82.5297 15.3409C85.6943 12.6456 92.7429 11.3725 94.8785 15.8465C96.7181 14.6727 100.561 12.474 104.395 12.8126C108.238 13.1467 109.9 16.1851 109.404 18.5463C109.404 18.5463 106.226 28.6546 105.561 30.5102L105.556 30.5056ZM59.494 29.7291C56.8576 29.7878 53.8751 29.7291 51.9263 28.7494C48.8573 36.8352 52.3725 41.6749 58.5241 38.1264C61.5704 36.3567 63.9882 32.3567 63.9882 32.3567L65.4908 33.5395C63.6148 36.3115 60.9966 41.7562 53.1329 41.7562C44.1172 41.7562 39.9508 33.386 41.9497 26.4786C43.9624 19.5621 50.6604 13.6885 56.1427 13.1512C62.7907 12.5192 67.6856 14.5011 68.6737 19.0519C69.6845 23.6027 66.1693 29.5982 59.5031 29.7517L59.494 29.7291ZM60.1588 15.8962C59.1616 14.7224 56.4068 15.0609 55.0772 18.0948L52.4499 26.7088C53.1238 27.6253 56.4205 28.3657 58.474 24.9391C61.2835 20.2573 61.1697 17.0926 60.1588 15.9097V15.8962ZM30.1337 22.3251C37.6012 24.1129 42.9469 41.0519 43.9487 44.0858C44.9504 47.1196 46.2254 49.9865 50.5784 49.9865C53.8341 49.9865 55.2958 48.8668 58.4695 46.1761L59.6352 47.693C50.0184 56 40.948 52.8533 37.4419 49.6433C32.8429 45.4447 31.7774 35.079 28.5035 26.6366C27.3561 23.6975 25.1796 22.0948 24.0913 22.1806L18.9369 38.4244H24.9382L24.2734 40.6366H4.0791L4.91237 38.2573H9.62059L20.9267 2.37472H16.0591L16.8924 0H35.8618C40.1648 0 42.396 0.243792 44.5862 2.68623C47.3728 5.77878 46.8173 11.4808 45.4149 14.5102C42.8786 19.9549 39.796 20.9616 30.1291 22.3205L30.1337 22.3251ZM33.7536 2.24379H30.3568L24.7424 20.0451C29.2366 20.0451 32.761 21.0564 35.6387 12.5734C38.8899 2.97968 35.5932 2.23928 33.7582 2.23928L33.7536 2.24379Z" fill="#B4B6B7"/>
</g>
<defs>
<clipPath id="clip0_126_360">
<rect width="261" height="56" fill="white"/>
</clipPath>
</defs>
</svg>
