<svg width="284" height="46" viewBox="0 0 284 46" fill="none" xmlns="http://www.w3.org/2000/svg">
<g clip-path="url(#clip0_140_2144)">
<path d="M61.8107 9.3668C88.7877 8.01952 115.779 7.15341 142.771 6.76847C169.763 6.38353 196.505 6.51185 223.364 7.12133C238.622 7.47419 253.895 7.95536 269.153 8.59692L271.224 2.02091C236.39 3.33612 201.571 4.9721 166.752 6.92886C131.933 8.88563 97.1143 11.1632 62.2953 13.7936C42.7491 15.2692 23.2176 16.8089 3.6714 18.477C2.52595 18.5732 0.80776 19.2148 0.161604 21.6527C-0.440495 23.9303 0.675592 25.1171 1.60077 25.053C37.8883 23.0321 74.2051 22.8396 110.507 24.5077C146.809 26.1757 183.082 29.7364 219.311 35.1255C239.665 38.1409 260.004 41.7657 280.314 45.9679C281.415 46.1925 283.236 45.0056 283.824 42.7922C284.47 40.3863 283.266 39.5523 282.385 39.3919C246.244 31.9177 210.015 26.272 173.757 22.4867C137.499 18.7015 101.182 16.8089 64.8799 16.7768C44.482 16.7768 24.084 17.3222 3.68609 18.477L1.61545 25.053C36.4197 22.0697 71.2387 19.4393 106.058 17.0976C140.877 14.788 175.696 12.7671 210.515 11.099C230.061 10.1688 249.622 9.30264 269.168 8.56485C270.313 8.53277 272.046 7.79497 272.678 5.38911C273.309 2.98326 272.149 2.02091 271.238 1.98884C244.232 0.898179 217.255 0.224539 190.263 0.0641487C163.272 -0.0962419 136.53 0.192461 109.67 0.994414C94.4122 1.44351 79.1394 2.05299 63.8813 2.82287C62.7359 2.88702 61.003 3.59274 60.3715 5.9986C59.7694 8.27614 60.8855 9.46303 61.8107 9.39888V9.3668Z" fill="#393E46"/>
</g>
<defs>
<clipPath id="clip0_140_2144">
<rect width="284" height="46" fill="white"/>
</clipPath>
</defs>
</svg>
