<svg width="142" height="167" viewBox="0 0 142 167" fill="none" xmlns="http://www.w3.org/2000/svg">
<g clip-path="url(#clip0_119_509)">
<path d="M36.7748 62.2638C63.6928 47.0354 90.6109 31.807 117.529 16.5785C125.161 12.2544 132.828 7.96448 140.408 3.53781C141.452 2.93961 142.308 1.69194 141.007 0.88864C139.707 0.0853449 137.414 0.854458 136.199 1.52102C109.075 16.4076 82.2771 31.9266 55.359 47.155L32.394 60.1445C31.2988 60.7598 30.426 62.0929 31.7779 62.9133C33.1298 63.7337 35.5427 62.9646 36.809 62.2467L36.7748 62.2638Z" fill="#00ADB5"/>
<path d="M135.377 2.78597C134.915 38.5241 134.111 74.2622 132.947 109.983C132.622 120.187 132.246 130.39 131.869 140.594C131.767 143.294 138.389 141.961 138.475 139.773C139.844 104.052 140.853 68.3315 141.521 32.5934C141.709 22.3898 141.863 12.1691 142 1.96558C142.034 -0.751948 135.412 0.615363 135.395 2.78597H135.377Z" fill="#00ADB5"/>
<path d="M31.453 62.1613C59.5518 81.1498 85.0838 103.54 110.958 125.365C118.214 131.484 125.521 137.569 132.913 143.533C134.094 144.491 135.994 144.166 137.294 143.602C137.944 143.328 140.238 141.91 139.057 140.953C112.464 119.486 87.1373 96.4466 59.9625 75.6977C52.3646 69.9037 44.6297 64.2977 36.7066 58.9481C34.9269 57.7517 28.8177 60.3667 31.453 62.1442V62.1613Z" fill="#00ADB5"/>
<path d="M134.932 1.81162C115.578 23.2442 96.5661 44.9845 77.8963 66.9982C72.5743 73.2707 67.2866 79.5775 62.0159 85.9013C60.9891 87.1319 62.8886 87.7984 63.8127 87.8497C65.3871 87.9352 67.1668 87.2686 68.1764 86.0551C86.658 63.8705 105.465 41.9593 124.631 20.3558C130.09 14.2029 135.583 8.06707 141.093 1.94836C142.188 0.734867 140.169 0.0512109 139.296 -6.32871e-05C137.671 -0.0855203 136.011 0.615227 134.932 1.79453V1.81162Z" fill="#00ADB5"/>
<path d="M127.283 6.17002C115.955 31.6875 105.139 57.4613 94.9061 83.4402C91.997 90.8066 89.1392 98.1901 86.3156 105.591C85.768 107.009 88.4376 107.078 89.1734 107.009C90.5596 106.855 92.3906 106.189 92.9382 104.77C102.881 78.6717 113.353 52.7782 124.391 27.1241C127.523 19.8431 130.689 12.5964 133.906 5.34963C134.522 3.94814 131.715 3.86268 131.048 3.93105C129.593 4.10196 127.916 4.76852 127.283 6.17002Z" fill="#00ADB5"/>
<path d="M85.5628 104.035C80.8911 110.957 75.8771 117.606 70.9829 124.374C70.1101 125.571 71.7187 126.186 72.677 126.22C74.1658 126.271 75.86 125.69 76.8183 124.511C82.0718 118.016 86.8462 111.094 91.518 104.172C92.3565 102.924 90.7992 102.326 89.7896 102.292C88.3864 102.258 86.4013 102.788 85.5628 104.035Z" fill="#00ADB5"/>
<path d="M64.1549 88.4138C65.7121 102.309 66.8758 116.324 68.9635 130.168C69.2887 132.322 75.415 130.783 75.2438 128.493C74.1828 114.529 72.1978 100.6 70.6234 86.6875C70.3839 84.5511 63.8811 85.9868 64.1549 88.4138Z" fill="#00ADB5"/>
<path d="M79.6076 127.433C82.4996 124.784 85.4943 122.255 88.5917 119.845C91.6891 117.435 94.872 115.401 98.1063 113.025C99.0646 112.308 98.8763 111.214 97.7982 110.855C96.4292 110.393 94.7351 110.855 93.5372 111.556C89.9949 113.606 86.658 116.17 83.4237 118.666C80.1894 121.161 77.2461 123.673 74.3198 126.357C73.9604 126.681 73.5155 127.245 73.6695 127.775C73.8235 128.305 74.4738 128.579 74.953 128.681C76.4418 129.006 78.4782 128.476 79.6247 127.433H79.6076Z" fill="#00ADB5"/>
<path d="M85.5456 117.538C87.582 115.589 89.6355 113.658 91.6719 111.692C91.9971 111.368 92.4078 110.889 92.2709 110.376C92.134 109.864 91.535 109.624 91.0901 109.539C90.3371 109.402 89.5329 109.453 88.8141 109.676C88.0954 109.898 87.3253 110.171 86.7777 110.701C84.7071 112.632 82.6536 114.581 80.6001 116.529C80.2578 116.854 79.8472 117.35 79.9841 117.862C80.121 118.375 80.737 118.631 81.1819 118.717C81.9349 118.854 82.7563 118.802 83.4921 118.58C84.228 118.358 84.998 118.067 85.5456 117.538Z" fill="#00ADB5"/>
<path d="M77.7934 120.734L77.1774 121.041C76.4929 121.383 77.6223 120.819 77.0747 121.093L80.7368 122.853C84.1593 119.127 87.7187 115.538 91.3466 112C91.6717 111.675 92.0824 111.197 91.9455 110.684C91.8086 110.171 91.2097 109.932 90.7648 109.846C89.3786 109.59 87.4963 110 86.4353 111.009C82.7561 114.478 79.2309 118.119 75.8255 121.862C75.5517 122.169 75.0383 122.682 75.2266 123.178C75.3806 123.588 75.7228 123.793 76.1335 123.93C77.4683 124.357 79.0084 123.93 80.1892 123.263C80.6512 123.007 81.1133 122.785 81.5582 122.545C82.3967 122.101 83.355 120.751 82.0887 120.17C80.7026 119.554 79.0427 120.101 77.7763 120.734H77.7934Z" fill="#00ADB5"/>
<path d="M89.0538 115.247C90.3886 113.111 91.7234 110.974 93.0068 108.804C93.2464 108.377 93.3491 107.932 93.0068 107.522C92.6646 107.112 91.8432 106.975 91.3298 106.975C90.5084 106.975 89.6528 107.112 88.8998 107.454C88.2838 107.727 87.6164 108.086 87.2399 108.667C85.8538 110.786 84.5361 112.957 83.2013 115.111C82.9446 115.538 82.8591 115.999 83.2013 116.41C83.5436 116.82 84.3821 116.956 84.8955 116.956C85.734 116.956 86.6067 116.82 87.3597 116.461C87.9757 116.187 88.6773 115.828 89.0538 115.23V115.247Z" fill="#00ADB5"/>
<path d="M88.1468 111.197C89.0709 112.325 89.995 113.453 90.9533 114.564C91.1415 114.752 91.3811 114.888 91.6549 114.94C91.9629 115.059 92.288 115.11 92.6303 115.11C93.041 115.11 93.4346 115.076 93.8282 114.991C94.256 114.922 94.6667 114.803 95.0603 114.632L95.7619 114.273C96.1384 114.051 96.4635 113.777 96.7202 113.418L96.9255 112.974C96.994 112.666 96.9255 112.393 96.7031 112.154C95.8132 111.009 94.8891 109.881 93.9822 108.77C93.7768 108.564 93.5544 108.445 93.2806 108.394C92.9725 108.274 92.6303 108.223 92.288 108.223C91.8773 108.223 91.4666 108.257 91.073 108.342C90.6452 108.411 90.2345 108.53 89.8238 108.701L89.1222 109.06C88.7457 109.282 88.4206 109.573 88.1468 109.915L87.9243 110.376C87.8559 110.701 87.9243 110.974 88.1468 111.214V111.197Z" fill="#00ADB5"/>
<path d="M8.55646 85.8844L0.616237 93.8148C0.291098 94.1395 -0.119603 94.601 0.0172973 95.1137C0.154198 95.5923 0.753137 95.8657 1.18095 95.9341C1.91679 96.0708 2.70397 96.0196 3.4227 95.7974C4.14142 95.5752 4.91149 95.3188 5.42487 94.789L13.3822 86.8586C13.7073 86.5338 14.118 86.0724 13.9811 85.5596C13.8442 85.0811 13.2453 84.8076 12.8175 84.7392C12.0816 84.6025 11.2945 84.6538 10.5757 84.876C9.85702 85.0982 9.08695 85.3545 8.57358 85.8844H8.55646Z" fill="#00ADB5"/>
<path d="M33.78 99.882L19.3028 114.358C18.9776 114.683 18.5669 115.145 18.7038 115.674C18.8407 116.153 19.4397 116.427 19.8846 116.512C21.2365 116.768 23.1702 116.375 24.1798 115.367L38.6742 100.89C38.9993 100.566 39.41 100.087 39.2731 99.5744C39.1362 99.0787 38.5373 98.8224 38.0923 98.7369C36.7405 98.4805 34.7896 98.8737 33.78 99.8991V99.882Z" fill="#00ADB5"/>
<path d="M84.7074 136.304C80.1897 141.277 75.672 146.268 71.1714 151.242C70.8462 151.584 70.4184 152.028 70.5724 152.558C70.7093 153.053 71.3254 153.31 71.7532 153.395C73.0537 153.635 75.1244 153.276 76.0827 152.233C80.6175 147.259 85.1352 142.269 89.6529 137.295C89.9781 136.936 90.4059 136.509 90.269 135.962C90.1321 135.466 89.516 135.193 89.0711 135.107C87.7534 134.868 85.6657 135.227 84.7074 136.27V136.304Z" fill="#00ADB5"/>
<path d="M128.139 151.686C123.621 156.044 119.12 160.403 114.603 164.761C114.278 165.086 113.85 165.564 113.987 166.077C114.124 166.59 114.74 166.846 115.185 166.914C116.571 167.171 118.47 166.761 119.531 165.752C124.066 161.394 128.584 157.036 133.101 152.677C133.444 152.353 133.854 151.857 133.717 151.344C133.581 150.831 132.965 150.575 132.52 150.49C131.116 150.233 129.2 150.643 128.139 151.669V151.686Z" fill="#00ADB5"/>
</g>
<defs>
<clipPath id="clip0_119_509">
<rect width="142" height="167" fill="white"/>
</clipPath>
</defs>
</svg>
